# xmcd CD database file
#
# Track frame offsets:
#	150
#	21065
#	60306
#	106962
#	146290
#	182618
#	216142
#	255900
#	280349
#
# Disc length: 4291 seconds
#
# Revision: 0
# Processed by: cddbd v1.4PL0 Copyright (c) Steve Scherf et al.
# Submitted via: CDex 1.50
#
DISCID=7210c109
DTITLE=Stanley Jordan - Ragas
DYEAR=2003
DGENRE=Jazz
TTITLE0=Maru Bihag Alap
TTITLE1=Maru Bihag Vilambit
TTITLE2=Maru Bihag Drut
TTITLE3=King and the Sparrow Alap-Jor
TTITLE4=King and the Sparrow Drut
TTITLE5=Shankara Alap-Jor
TTITLE6=Mississippi Malkauns Alap-Jor
TTITLE7=Bageshri Alap-Jor
TTITLE8=Bageshri Drut
EXTD=YEAR: 2003
EXTT0=
EXTT1=
EXTT2=
EXTT3=
EXTT4=
EXTT5=
EXTT6=
EXTT7=
EXTT8=
PLAYORDER=
